<?xml version="1.0" encoding="utf-8"?>
<!-- Generator: Adobe Illustrator 21.0.0, SVG Export Plug-In . SVG Version: 6.00 Build 0)  -->
<svg version="1.1" id="Layer_1" xmlns="http://www.w3.org/2000/svg" xmlns:xlink="http://www.w3.org/1999/xlink" x="0px" y="0px"
	 viewBox="0 0 111.2 116" style="enable-background:new 0 0 111.2 116;" xml:space="preserve">
<style type="text/css">
	.st0{fill:#73BC45;}
	.st1{fill:#98B7CD;}
</style>
<g>
	<g>
		<path class="st0" d="M52.3,70.9c-0.6,0-1,0.4-1,1v4.7c0,0.6,0.4,1,1,1s1-0.4,1-1v-4.7C53.3,71.3,52.9,70.9,52.3,70.9z"/>
	</g>
</g>
<path class="st1" d="M81.4,52.4c0,0-0.1,0-0.1,0c-0.6-0.1-1-0.5-0.9-1.1c0.1-1,0.2-2,0.2-2.9c0-15.5-12.7-28.1-28.3-28.1
	C36.7,20.3,24,32.9,24,48.4c0,0.8,0,1.6,0.1,2.4c0,0.5-0.4,1-0.9,1.1c-0.6,0.1-1-0.4-1.1-0.9C22,50.1,22,49.2,22,48.4
	c0-16.6,13.6-30.1,30.3-30.1c16.7,0,30.3,13.5,30.3,30.1c0,1.1-0.1,2.1-0.2,3.1C82.4,52,81.9,52.4,81.4,52.4z"/>
<path class="st1" d="M29.2,92.7c-12.2,0-22-9.8-22-21.9c0-9.6,6.2-18,15.5-20.9c0.5-0.2,1.1,0.1,1.3,0.7c0.2,0.5-0.1,1.1-0.7,1.2
	c-8.4,2.6-14.1,10.2-14.1,19c0,11,9,19.9,20,19.9c0.6,0,1,0.4,1,1C30.2,92.3,29.8,92.7,29.2,92.7z"/>
<path class="st1" d="M94.8,91.9c-0.4,0-0.8-0.3-1-0.7c-0.2-0.5,0.2-1.1,0.7-1.2c8.6-2.4,14.6-10.3,14.6-19.1c0-11-9-19.9-20-19.9
	c-2.5,0-5,0.5-7.3,1.4c-0.5,0.2-1.1,0-1.3-0.6c-0.2-0.5,0.1-1.1,0.6-1.3c2.6-1,5.3-1.5,8.1-1.5c12.2,0,22,9.8,22,21.9
	c0,9.8-6.6,18.4-16.1,21.1C95,91.9,94.9,91.9,94.8,91.9z"/>
<path class="st1" d="M78.1,100.1c-6.5,0-12.6-2.8-16.8-7.8c-0.4-0.4-0.3-1,0.1-1.4c0.4-0.4,1.1-0.3,1.4,0.1
	c3.8,4.5,9.4,7.1,15.3,7.1c6.3,0,12.1-2.8,15.9-7.8c0.3-0.4,1-0.5,1.4-0.2c0.4,0.3,0.5,1,0.2,1.4C91.4,97,85,100.1,78.1,100.1z"/>
<path class="st1" d="M62,92.7H29.2c-0.6,0-1-0.4-1-1c0-0.6,0.4-1,1-1H62c0.6,0,1,0.4,1,1C63.1,92.3,62.6,92.7,62,92.7z"/>
<path class="st1" d="M96.1,43.8c-3.6,0-6.5-2.9-6.5-6.5c0-3.6,2.9-6.5,6.5-6.5c3.6,0,6.5,2.9,6.5,6.5
	C102.7,40.9,99.7,43.8,96.1,43.8z M96.1,32.8c-2.5,0-4.5,2-4.5,4.5c0,2.5,2,4.5,4.5,4.5c2.5,0,4.5-2,4.5-4.5
	C100.7,34.8,98.6,32.8,96.1,32.8z"/>
<path class="st1" d="M36,101c0,1.1-0.9,2-2,2s-2-0.9-2-2c0-1.1,0.9-2,2-2S36,99.9,36,101z"/>
<path class="st1" d="M4,42c0,1.1-0.9,2-2,2c-1.1,0-2-0.9-2-2c0-1.1,0.9-2,2-2C3.1,40,4,40.9,4,42z"/>
<path class="st0" d="M88,2c0,1.1-0.9,2-2,2c-1.1,0-2-0.9-2-2c0-1.1,0.9-2,2-2C87.1,0,88,0.9,88,2z"/>
<path class="st0" d="M100,75c0,1.1-0.9,2-2,2c-1.1,0-2-0.9-2-2s0.9-2,2-2C99.1,73,100,73.9,100,75z"/>
<path class="st0" d="M13.6,30.8c-3.5,0-6.4-2.9-6.4-6.4c0-3.5,2.9-6.4,6.4-6.4c3.5,0,6.4,2.9,6.4,6.4C20,27.9,17.1,30.8,13.6,30.8z
	 M13.6,20c-2.4,0-4.4,2-4.4,4.4c0,2.4,2,4.4,4.4,4.4c2.4,0,4.4-2,4.4-4.4C18,22,16,20,13.6,20z"/>
<path class="st0" d="M47.7,116c-3.6,0-6.6-2.9-6.6-6.6c0-3.6,3-6.6,6.6-6.6c3.6,0,6.6,2.9,6.6,6.6C54.3,113.1,51.3,116,47.7,116z
	 M47.7,104.9c-2.5,0-4.6,2-4.6,4.6c0,2.5,2.1,4.6,4.6,4.6c2.5,0,4.6-2,4.6-4.6C52.2,107,50.2,104.9,47.7,104.9z"/>
<path class="st0" d="M52.3,58c-4.1,0-7.4-3.3-7.4-7.3v-2.3c0-4,3.3-7.3,7.4-7.3s7.4,3.3,7.4,7.3v1c0,0.6-0.4,1-1,1c-0.6,0-1-0.4-1-1
	v-1c0-2.9-2.4-5.3-5.4-5.3s-5.4,2.4-5.4,5.3v2.3c0,2.9,2.4,5.3,5.4,5.3c0.6,0,1,0.4,1,1C53.3,57.5,52.9,58,52.3,58z"/>
<path class="st0" d="M52.3,72.9c-4.1,0-7.4-3.3-7.4-7.3v-0.7c0-0.6,0.4-1,1-1c0.6,0,1,0.4,1,1v0.7c0,2.9,2.4,5.3,5.4,5.3
	s5.4-2.4,5.4-5.3v-2.3c0-2.9-2.4-5.3-5.4-5.3c-0.6,0-1-0.4-1-1c0-0.6,0.4-1,1-1c4.1,0,7.4,3.3,7.4,7.3v2.3
	C59.8,69.6,56.4,72.9,52.3,72.9z"/>
<path class="st0" d="M52.3,43.1c-0.6,0-1-0.4-1-1v-4.7c0-0.6,0.4-1,1-1c0.6,0,1,0.4,1,1v4.7C53.3,42.6,52.9,43.1,52.3,43.1z"/>
</svg>
