<?xml version="1.0" encoding="utf-8"?>
<!-- Generator: Adobe Illustrator 21.0.0, SVG Export Plug-In . SVG Version: 6.00 Build 0)  -->
<svg version="1.1" id="Layer_1" xmlns="http://www.w3.org/2000/svg" xmlns:xlink="http://www.w3.org/1999/xlink" x="0px" y="0px"
	 viewBox="0 0 146.2 116" style="enable-background:new 0 0 146.2 116;" xml:space="preserve">
<style type="text/css">
	.st0{fill:#8DC63F;}
	.st1{fill:#98B7CD;}
</style>
<g>
	<g>
		<path class="st0" d="M86,0c-1.1,0-2,0.9-2,2c0,1.1,0.9,2,2,2c1.1,0,2-0.9,2-2C88,0.9,87.1,0,86,0z M98,73c-1.1,0-2,0.9-2,2
			c0,1.1,0.9,2,2,2c1.1,0,2-0.9,2-2C100,73.9,99.1,73,98,73z M13.6,18c-3.5,0-6.4,2.9-6.4,6.4c0,3.5,2.9,6.4,6.4,6.4
			s6.4-2.9,6.4-6.4C20,20.9,17.1,18,13.6,18z M13.6,28.8c-2.4,0-4.4-2-4.4-4.4c0-2.4,2-4.4,4.4-4.4c2.4,0,4.4,2,4.4,4.4
			C18,26.8,16,28.8,13.6,28.8z M47.7,102.9c-3.6,0-6.6,2.9-6.6,6.6c0,3.6,3,6.6,6.6,6.6c3.6,0,6.6-2.9,6.6-6.6
			C54.3,105.9,51.3,102.9,47.7,102.9z M47.7,114c-2.5,0-4.6-2-4.6-4.6c0-2.5,2.1-4.6,4.6-4.6c2.5,0,4.6,2,4.6,4.6
			C52.2,112,50.2,114,47.7,114z M54.3,39.2v-3.7c0-0.6-0.4-1-1-1c-0.6,0-1,0.4-1,1v3.7c-3.6,0.5-6.4,3.5-6.4,7.2v2.3
			c0,4,3.3,7.3,7.4,7.3c3,0,5.4,2.4,5.4,5.3v2.3c0,2.9-2.4,5.3-5.4,5.3c-3,0-5.4-2.4-5.4-5.3v-0.7c0-0.6-0.4-1-1-1c-0.6,0-1,0.4-1,1
			v0.7c0,3.7,2.8,6.7,6.4,7.2v3.7c0,0.6,0.4,1,1,1c0.6,0,1-0.4,1-1v-3.7c3.6-0.5,6.4-3.5,6.4-7.2v-2.3c0-4-3.3-7.3-7.4-7.3
			c-3,0-5.4-2.4-5.4-5.3v-2.3c0-2.9,2.4-5.3,5.4-5.3c3,0,5.4,2.4,5.4,5.3v1c0,0.6,0.4,1,1,1c0.6,0,1-0.4,1-1v-1
			C60.8,42.7,57.9,39.6,54.3,39.2z M28.8,60.4v-2.7c0-0.4-0.3-0.7-0.7-0.7c-0.4,0-0.7,0.3-0.7,0.7v2.7c-2.4,0.3-4.3,2.5-4.3,5.1v1.6
			c0,2.8,2.2,5.2,5,5.2c2,0,3.7,1.7,3.7,3.7v1.6c0,2.1-1.6,3.7-3.7,3.7c-2,0-3.7-1.7-3.7-3.7v-0.5c0-0.4-0.3-0.7-0.7-0.7
			c-0.4,0-0.7,0.3-0.7,0.7v0.5c0,2.6,1.9,4.7,4.3,5.1v2.7c0,0.4,0.3,0.7,0.7,0.7c0.4,0,0.7-0.3,0.7-0.7v-2.7
			c2.4-0.3,4.3-2.5,4.3-5.1V76c0-2.8-2.2-5.2-5-5.2c-2,0-3.7-1.7-3.7-3.7v-1.6c0-2.1,1.6-3.7,3.7-3.7c2,0,3.7,1.7,3.7,3.7v0.7
			c0,0.4,0.3,0.7,0.7,0.7c0.4,0,0.7-0.3,0.7-0.7v-0.7C33.2,62.9,31.3,60.7,28.8,60.4z M80.8,60.4v-2.7c0-0.4-0.3-0.7-0.7-0.7
			c-0.4,0-0.7,0.3-0.7,0.7v2.7c-2.4,0.3-4.3,2.5-4.3,5.1v1.6c0,2.8,2.2,5.2,5,5.2c2,0,3.7,1.7,3.7,3.7v1.6c0,2.1-1.6,3.7-3.7,3.7
			c-2,0-3.7-1.7-3.7-3.7v-0.5c0-0.4-0.3-0.7-0.7-0.7c-0.4,0-0.7,0.3-0.7,0.7v0.5c0,2.6,1.9,4.7,4.3,5.1v2.7c0,0.4,0.3,0.7,0.7,0.7
			c0.4,0,0.7-0.3,0.7-0.7v-2.7c2.4-0.3,4.3-2.5,4.3-5.1V76c0-2.8-2.2-5.2-5-5.2c-2,0-3.7-1.7-3.7-3.7v-1.6c0-2.1,1.6-3.7,3.7-3.7
			c2,0,3.7,1.7,3.7,3.7v0.7c0,0.4,0.3,0.7,0.7,0.7c0.4,0,0.7-0.3,0.7-0.7v-0.7C85.2,62.9,83.3,60.7,80.8,60.4z M146.2,44
			c0-0.1,0-0.2-0.1-0.4c-0.1-0.2-0.3-0.4-0.5-0.5c-0.1,0-0.2-0.1-0.4-0.1c0,0,0,0,0,0c0,0,0,0,0,0c0,0,0,0,0,0c0,0,0,0,0,0h-9.6
			c-0.6,0-1,0.4-1,1s0.4,1,1,1h7.2l-15.3,15.3c-0.4,0.4-0.4,1,0,1.4c0.4,0.4,1,0.4,1.4,0l15.3-15.3v7.2c0,0.6,0.4,1,1,1s1-0.4,1-1
			L146.2,44C146.2,44,146.2,44,146.2,44z"/>
	</g>
</g>
<path class="st1" d="M81.4,52.4c0,0-0.1,0-0.1,0c-0.6-0.1-1-0.5-0.9-1.1c0.1-1,0.2-2,0.2-2.9c0-15.5-12.7-28.1-28.3-28.1
	C36.7,20.3,24,32.9,24,48.4c0,0.8,0,1.6,0.1,2.4c0,0.5-0.4,1-0.9,1.1c-0.6,0.1-1-0.4-1.1-0.9C22,50.1,22,49.2,22,48.4
	c0-16.6,13.6-30.1,30.3-30.1c16.7,0,30.3,13.5,30.3,30.1c0,1.1-0.1,2.1-0.2,3.1C82.4,52,81.9,52.4,81.4,52.4z"/>
<path class="st1" d="M29.2,92.7c-12.2,0-22-9.8-22-21.9c0-9.6,6.2-18,15.5-20.9c0.5-0.2,1.1,0.1,1.3,0.7c0.2,0.5-0.1,1.1-0.7,1.2
	c-8.4,2.6-14.1,10.2-14.1,19c0,11,9,19.9,20,19.9c0.6,0,1,0.4,1,1C30.2,92.3,29.8,92.7,29.2,92.7z"/>
<path class="st1" d="M94.8,91.9c-0.4,0-0.8-0.3-1-0.7c-0.2-0.5,0.2-1.1,0.7-1.2c8.6-2.4,14.6-10.3,14.6-19.1c0-11-9-19.9-20-19.9
	c-2.5,0-5,0.5-7.3,1.4c-0.5,0.2-1.1,0-1.3-0.6c-0.2-0.5,0.1-1.1,0.6-1.3c2.6-1,5.3-1.5,8.1-1.5c12.2,0,22,9.8,22,21.9
	c0,9.8-6.6,18.4-16.1,21.1C95,91.9,94.9,91.9,94.8,91.9z"/>
<path class="st1" d="M78.1,100.1c-6.5,0-12.6-2.8-16.8-7.8c-0.4-0.4-0.3-1,0.1-1.4c0.4-0.4,1.1-0.3,1.4,0.1
	c3.8,4.5,9.4,7.1,15.3,7.1c6.3,0,12.1-2.8,15.9-7.8c0.3-0.4,1-0.5,1.4-0.2c0.4,0.3,0.5,1,0.2,1.4C91.4,97,85,100.1,78.1,100.1z"/>
<path class="st1" d="M62,92.7H29.2c-0.6,0-1-0.4-1-1c0-0.6,0.4-1,1-1H62c0.6,0,1,0.4,1,1C63.1,92.3,62.6,92.7,62,92.7z"/>
<path class="st1" d="M96.1,43.8c-3.6,0-6.5-2.9-6.5-6.5c0-3.6,2.9-6.5,6.5-6.5c3.6,0,6.5,2.9,6.5,6.5
	C102.7,40.9,99.7,43.8,96.1,43.8z M96.1,32.8c-2.5,0-4.5,2-4.5,4.5c0,2.5,2,4.5,4.5,4.5c2.5,0,4.5-2,4.5-4.5
	C100.7,34.8,98.6,32.8,96.1,32.8z"/>
<path class="st1" d="M36,101c0,1.1-0.9,2-2,2s-2-0.9-2-2c0-1.1,0.9-2,2-2S36,99.9,36,101z"/>
<path class="st1" d="M4,42c0,1.1-0.9,2-2,2s-2-0.9-2-2c0-1.1,0.9-2,2-2S4,40.9,4,42z"/>
<path class="st1" d="M129.9,18.7l-13,13c-0.4,0.4-1,0.4-1.4,0c-0.4-0.4-0.4-1,0-1.4l13-13c0.4-0.4,1-0.4,1.4,0
	C130.3,17.7,130.3,18.3,129.9,18.7z"/>
<path class="st1" d="M130.2,18v6.6c0,0.6-0.4,1-1,1c-0.6,0-1-0.4-1-1V18c0-0.6,0.4-1,1-1C129.7,17,130.2,17.5,130.2,18z"/>
<path class="st1" d="M129.2,19h-6.6c-0.6,0-1-0.4-1-1s0.4-1,1-1h6.6c0.6,0,1,0.4,1,1S129.7,19,129.2,19z"/>
<path class="st1" d="M127.9,82.7l-13,13c-0.4,0.4-1,0.4-1.4,0c-0.4-0.4-0.4-1,0-1.4l13-13c0.4-0.4,1-0.4,1.4,0
	C128.3,81.7,128.3,82.3,127.9,82.7z"/>
<path class="st1" d="M128.2,82v6.6c0,0.6-0.4,1-1,1c-0.6,0-1-0.4-1-1V82c0-0.6,0.4-1,1-1C127.7,81,128.2,81.5,128.2,82z"/>
<path class="st1" d="M127.2,83h-6.6c-0.5,0-1-0.4-1-1c0-0.6,0.4-1,1-1h6.6c0.6,0,1,0.4,1,1C128.2,82.6,127.7,83,127.2,83z"/>
</svg>
