<?xml version="1.0" encoding="utf-8"?>
<!-- Generator: Adobe Illustrator 21.0.0, SVG Export Plug-In . SVG Version: 6.00 Build 0)  -->
<svg version="1.1" id="Layer_1" xmlns="http://www.w3.org/2000/svg" xmlns:xlink="http://www.w3.org/1999/xlink" x="0px" y="0px"
	 viewBox="0 0 95.8 99.5" style="enable-background:new 0 0 95.8 99.5;" xml:space="preserve">
<style type="text/css">
	.st0{fill:#98B7CD;}
	.st1{fill:#73BC45;}
</style>
<path class="st0" d="M12.8,49.6c0,1.1-0.9,2-2,2s-2-0.9-2-2c0-1.1,0.9-2,2-2S12.8,48.4,12.8,49.6z"/>
<path class="st0" d="M95.8,63.6c0,1.1-0.9,2-2,2c-1.1,0-2-0.9-2-2s0.9-2,2-2C94.9,61.5,95.8,62.4,95.8,63.6z"/>
<path class="st0" d="M17.6,66.7c-0.3,0-0.6-0.1-0.8-0.4c-0.3-0.5-0.2-1.1,0.2-1.4c4-2.9,5.8-7.5,7.4-11.5c1-2.6,2-5,3.4-6.7
	c0.4-0.4,1-0.5,1.4-0.1c0.4,0.4,0.5,1,0.1,1.4c-1.2,1.4-2.1,3.7-3.1,6.1c-1.7,4.3-3.7,9.2-8.1,12.4C18,66.6,17.8,66.7,17.6,66.7z"/>
<path class="st0" d="M35.9,41.9c0-1.2-0.9-2.1-2.1-2.1s-2.1,0.9-2.1,2.1c0,1.2,0.9,2.1,2.1,2.1S35.9,43.1,35.9,41.9z"/>
<path class="st0" d="M55.7,48.3c0-1.2-0.9-2.1-2.1-2.1c-1.2,0-2.1,0.9-2.1,2.1c0,1.2,0.9,2.1,2.1,2.1C54.8,50.4,55.7,49.5,55.7,48.3
	z"/>
<path class="st0" d="M62.4,48.3c0-1.2-0.9-2.1-2.1-2.1c-1.2,0-2.1,0.9-2.1,2.1c0,1.2,0.9,2.1,2.1,2.1C61.5,50.4,62.4,49.5,62.4,48.3
	z"/>
<path class="st0" d="M62,54.6c0-1.2-0.9-2.1-2.1-2.1s-2.1,0.9-2.1,2.1c0,1.2,0.9,2.1,2.1,2.1S62,55.8,62,54.6z"/>
<path class="st1" d="M70.8,28.6c0,1.1-0.9,2-2,2c-1.1,0-2-0.9-2-2c0-1.1,0.9-2,2-2C69.9,26.5,70.8,27.4,70.8,28.6z"/>
<path class="st1" d="M49.9,38.4c-0.6,0-1-0.4-1-1c0-27-18.7-27.5-19.5-27.5c-0.6,0-1-0.5-1-1c0-0.6,0.5-1,1-1c0,0,0,0,0,0
	c0.2,0,16.5,0.4,20.6,19.9C54.8,8.4,73.9,7.9,74.1,7.9c0,0,0,0,0,0c0.5,0,1,0.4,1,1c0,0.6-0.4,1-1,1c-0.9,0-23.2,0.6-23.2,27.5
	C50.9,38,50.5,38.4,49.9,38.4z"/>
<path class="st1" d="M54.4,21.6c-0.3,0-0.6-0.1-0.8-0.4c-0.3-0.4-0.3-1.1,0.1-1.4c0.2-0.1,3.9-3.1,12.1-1.6
	c3.6,0.7,7.6-0.6,11.9-3.8c2.6-2,7.7-9.3,6.5-11.7c-0.5-1.1-2.9-0.7-4.3-0.4c-3.4,0.8-6.1,0.6-8.8,0.3c-3-0.3-5.5-0.5-8.8,0.9
	c-5.2,2.2-7.2,7.1-7.2,7.1c-0.2,0.5-0.8,0.8-1.3,0.6c-0.5-0.2-0.8-0.8-0.6-1.3c0.1-0.2,2.3-5.7,8.3-8.2c3.7-1.6,6.8-1.3,9.7-1
	c2.5,0.2,5,0.5,8.1-0.3c3.5-0.8,5.7-0.3,6.5,1.5C88,5.9,81.6,14.1,79,16c-4.7,3.5-9.3,4.9-13.5,4.1c-7.3-1.4-10.5,1.2-10.5,1.2
	C54.8,21.5,54.6,21.6,54.4,21.6z"/>
<path class="st1" d="M48.5,26.8c-0.4,0-0.8-0.2-0.9-0.6c-0.1-0.2-1.8-4.1-8.4-3.5C34.6,23,28.5,20.7,25,17.3
	C20.6,13,18.3,6.6,20,3.2c0.5-0.9,1.7-2.4,4.6-1.9c2.7,0.5,4.6,0.4,6.4,0.3c2.3-0.1,4.5-0.3,7.9,0.8c4.5,1.4,7.8,6.9,8,7.2
	c0.3,0.5,0.1,1.1-0.3,1.4c-0.5,0.3-1.1,0.1-1.4-0.3c0-0.1-3-5.1-6.9-6.3c-3-1-4.9-0.8-7.1-0.7c-1.8,0.1-3.9,0.2-6.8-0.3
	c-1.9-0.3-2.3,0.6-2.5,0.9c-1.1,2.2,0.6,7.9,4.6,11.7C29.6,18.9,35,21,39,20.6c8.1-0.7,10.3,4.5,10.4,4.8c0.2,0.5,0,1.1-0.6,1.3
	C48.8,26.8,48.6,26.8,48.5,26.8z"/>
<g>
	<g>
		<path class="st1" d="M80.8,69.7c-1.6-1.7-4.5-2.6-7.1-0.5l-12,9.6c-3.2,2.5-10.6,4.6-17.2,1.4c-3.3-1.6-7.7-3.6-7.7-3.6
			c-0.1,0-0.2-0.1-0.1-0.3c0.1-0.2,0.2-0.2,0.3-0.2l12.4,1.2c3.8,0.5,6.2-2.1,6.8-4.7c0.6-2.6-0.3-6-3.9-7.3L29,56.7
			c-0.3-0.1-0.7-0.1-0.9,0.1l-27.6,20C0.2,77,0.1,77.2,0,77.5c0,0.3,0,0.5,0.2,0.7l14.8,20.6c0.3,0.4,0.8,0.5,1.3,0.3L22,96
			c1.3-0.7,2.9-0.8,4.3-0.3c0,0,4,1.3,5.5,1.9c3.2,1.3,8,2,13.1,2c8.6,0,18-1.9,21.3-5.6c2.3-2.5,14.3-16.6,14.8-17.1
			C83.2,74.3,82.4,71.4,80.8,69.7z M79.5,75.5C79.4,75.7,67,90.1,64.7,92.6c-4.4,4.9-23.4,6.7-32.2,3.1c-1.5-0.6-5.4-1.9-5.6-2
			c-0.8-0.3-1.6-0.4-2.4-0.4c-1.2,0-2.4,0.3-3.5,0.9l-5.1,2.7l-13.7-19l26.4-19.1l22.8,8.4c2.4,0.9,3.1,3.1,2.6,4.9
			c-0.4,1.8-2,3.5-4.6,3.2l-12.5-1.2C36,74,35,74.7,34.7,75.7c-0.3,1.1,0.2,2.1,1.2,2.6c0,0,4.4,2,7.7,3.6c7.8,3.8,16,1,19.3-1.6
			l12-9.6c1.6-1.3,3.4-0.8,4.4,0.3C80.4,72.1,80.9,73.9,79.5,75.5z"/>
	</g>
</g>
<path class="st0" d="M73.4,62.5C73.4,62.5,73.4,62.5,73.4,62.5c-0.6,0-1-0.5-1-1c0.2-12.5-10.1-22.8-23-23.1
	c-2.8-0.1-5.5,0.4-8.1,1.2c-0.5,0.2-1.1-0.1-1.3-0.6c-0.2-0.5,0.1-1.1,0.6-1.3c2.8-0.9,5.8-1.4,8.8-1.3c14,0.3,25.2,11.5,24.9,25.1
	C74.4,62.1,73.9,62.5,73.4,62.5z"/>
</svg>
