<?xml version="1.0" encoding="utf-8"?>
<!-- Generator: Adobe Illustrator 21.0.0, SVG Export Plug-In . SVG Version: 6.00 Build 0)  -->
<svg version="1.1" id="Layer_1" xmlns="http://www.w3.org/2000/svg" xmlns:xlink="http://www.w3.org/1999/xlink" x="0px" y="0px"
	 viewBox="0 0 112.2 113" style="enable-background:new 0 0 112.2 113;" xml:space="preserve">
<style type="text/css">
	.st0{fill:#73BC45;}
	.st1{fill:#98B7CD;}
</style>
<g>
	<g>
		<path class="st0" d="M42,44c-1.1,0-2,0.9-2,2c0,1.1,0.9,2,2,2c1.1,0,2-0.9,2-2C44,44.9,43.1,44,42,44z M30,4c1.1,0,2-0.9,2-2
			c0-1.1-0.9-2-2-2c-1.1,0-2,0.9-2,2C28,3.1,28.9,4,30,4z M90,109c-1.1,0-2,0.9-2,2s0.9,2,2,2c1.1,0,2-0.9,2-2S91.1,109,90,109z
			 M2,39c-1.1,0-2,0.9-2,2c0,1.1,0.9,2,2,2c1.1,0,2-0.9,2-2C4,39.9,3.1,39,2,39z M93.1,73.6C93,73.6,93,73.5,93.1,73.6
			c0-0.1,0-0.1,0-0.1L79.1,46.1c-0.2-0.3-0.5-0.5-0.9-0.5c0,0,0,0,0,0c-0.4,0-0.7,0.2-0.9,0.5L63.6,73.5c0,0,0,0,0,0c0,0,0,0,0,0.1
			c0,0.1-0.1,0.2-0.1,0.3c0,0,0,0,0,0c0,0,0,0,0,0c0,0,0,0,0,0.1c0.1,4.2,6.6,7.5,14.8,7.5c8.2,0,14.7-3.3,14.8-7.5c0,0,0,0,0-0.1
			c0,0,0,0,0,0c0,0,0,0,0,0C93.1,73.8,93.1,73.7,93.1,73.6z M78.2,48.8l12.3,24.1H66.1L78.2,48.8z M78.3,79.5
			c-6.6,0-11.5-2.3-12.6-4.6h25.2C89.8,77.3,84.9,79.5,78.3,79.5z M42.8,64.4C42.8,64.3,42.8,64.3,42.8,64.4c0-0.1,0-0.1,0-0.1
			L28.8,36.9c-0.2-0.3-0.5-0.5-0.9-0.5c0,0,0,0,0,0c-0.4,0-0.7,0.2-0.9,0.5L13.3,64.2c0,0,0,0,0,0c0,0,0,0,0,0.1
			c0,0.1-0.1,0.2-0.1,0.3c0,0,0,0,0,0c0,0,0,0,0,0c0,0,0,0,0,0.1c0.1,4.2,6.6,7.5,14.8,7.5c8.3,0,14.7-3.3,14.8-7.5c0,0,0,0,0-0.1
			c0,0,0,0,0,0c0,0,0,0,0,0C42.8,64.6,42.8,64.5,42.8,64.4z M28,39.6l12.3,24.1H15.8L28,39.6z M28,70.3c-6.6,0-11.5-2.3-12.6-4.6
			h25.2C39.5,68,34.6,70.3,28,70.3z M107.4,32.4c-2.6,0-4.8,2.1-4.8,4.8c0,2.6,2.1,4.8,4.8,4.8c2.6,0,4.8-2.1,4.8-4.8
			C112.2,34.5,110,32.4,107.4,32.4z M107.4,39.9c-1.5,0-2.8-1.2-2.8-2.8c0-1.5,1.2-2.7,2.8-2.7c1.5,0,2.8,1.2,2.8,2.7
			C110.2,38.7,108.9,39.9,107.4,39.9z"/>
	</g>
</g>
<g>
	<g>
		<path class="st1" d="M80,26.6c1.1,0,2-0.9,2-2c0-1.1-0.9-2-2-2c-1.1,0-2,0.9-2,2C78,25.7,78.9,26.6,80,26.6z M15.4,86
			c-2.6,0-4.8,2.1-4.8,4.8s2.1,4.8,4.8,4.8s4.8-2.1,4.8-4.8S18,86,15.4,86z M15.4,93.5c-1.5,0-2.8-1.2-2.8-2.7s1.2-2.7,2.8-2.7
			c1.5,0,2.8,1.2,2.8,2.7S16.9,93.5,15.4,93.5z M82.9,40.5c-0.6,0-1,0.4-1,1c0,2-1.6,3.6-3.6,3.6c-2,0-3.6-1.6-3.6-3.6
			c0,0,0-0.1,0-0.1c0-0.1,0-0.1,0-0.2c0-0.1,0-0.1-0.1-0.2c0-0.1-0.1-0.1-0.1-0.2c0-0.1-0.1-0.1-0.1-0.1c0,0-0.1-0.1-0.2-0.1
			c-0.1,0-0.1-0.1-0.2-0.1c0,0-0.1,0-0.1,0l-15.1-3.4c0-0.1,0-0.2,0-0.3c0-2.8-2-5-4.6-5.5V26l4.2-4.3c0.3-0.3,0.4-0.7,0.2-1.1
			l-4.5-9.5c-0.2-0.3-0.5-0.6-0.9-0.6s-0.7,0.2-0.9,0.6l-4.5,9.5c-0.2,0.4-0.1,0.8,0.2,1.1l4.2,4.3v5.4c-1.9,0.3-3.5,1.6-4.2,3.3
			l-15.3-3.6c0,0-0.1,0-0.1,0c0,0-0.1,0-0.1,0c0,0-0.1,0-0.1,0c-0.1,0-0.1,0-0.2,0c-0.1,0-0.1,0-0.2,0.1c-0.1,0-0.1,0.1-0.2,0.1
			c0,0-0.1,0.1-0.1,0.1c0,0-0.1,0.1-0.1,0.2c0,0.1-0.1,0.1-0.1,0.2c0,0,0,0,0,0.1c0,0,0,0.1,0,0.1c0,0,0,0.1,0,0.1
			c0,2-1.6,3.6-3.6,3.6c-2,0-3.6-1.6-3.6-3.6c0-0.6-0.4-1-1-1s-1,0.4-1,1c0,3.1,2.5,5.6,5.6,5.6c2.7,0,4.9-1.9,5.5-4.4l14.2,3.4
			c0,0.1,0,0.2,0,0.2c0,2.9,2.2,5.3,5,5.6c-0.2,0.2-0.4,0.5-0.4,0.8v38h-5.9c-0.3,0-0.5,0.1-0.7,0.3l-7.2,7.3
			c-0.3,0.3-0.4,0.7-0.2,1.1c0.2,0.4,0.5,0.6,0.9,0.6H67c0.4,0,0.8-0.2,0.9-0.6c0.2-0.4,0.1-0.8-0.2-1.1l-6.9-7.3
			c-0.2-0.2-0.4-0.3-0.7-0.3h-5.9v-38c0-0.3-0.2-0.6-0.4-0.8c2.1-0.2,3.8-1.5,4.6-3.4l14.3,3.2c0.4,2.7,2.7,4.8,5.6,4.8
			c3.1,0,5.6-2.5,5.6-5.6C83.9,41,83.4,40.5,82.9,40.5z M49.9,20.8l3.3-6.9l3.3,6.9l-3.3,3.3L49.9,20.8z M59.6,83.3l5,5.3H41.5
			l5.2-5.3H59.6z M53.2,40.5c-2,0-3.6-1.6-3.6-3.6c0-2,1.6-3.6,3.6-3.6c2,0,3.6,1.6,3.6,3.6C56.8,38.9,55.2,40.5,53.2,40.5z"/>
	</g>
</g>
</svg>
