<?xml version="1.0" encoding="utf-8"?>
<!-- Generator: Adobe Illustrator 21.0.0, SVG Export Plug-In . SVG Version: 6.00 Build 0)  -->
<svg version="1.1" id="Layer_1" xmlns="http://www.w3.org/2000/svg" xmlns:xlink="http://www.w3.org/1999/xlink" x="0px" y="0px"
	 viewBox="0 0 91.4 83.1" style="enable-background:new 0 0 91.4 83.1;" xml:space="preserve">
<style type="text/css">
	.st0{fill:#73BC45;}
	.st1{fill:#98B7CD;}
</style>
<path class="st0" d="M43.4,66.4c-0.5,0-1-0.4-1-1V2.4c-5.5,2.2-26.4,12-26.4,34c0,0.6-0.4,1-1,1c-0.6,0-1-0.4-1-1
	c0-26.6,28.7-36.3,29-36.4c0.3-0.1,0.6,0,0.9,0.1c0.3,0.2,0.4,0.5,0.4,0.8v64.4C44.4,65.9,44,66.4,43.4,66.4z"/>
<path class="st0" d="M43.4,39.4c-0.2,0-0.4-0.1-0.6-0.2L28.6,27.3c-0.4-0.4-0.5-1-0.1-1.4c0.4-0.4,1-0.5,1.4-0.1l14.2,11.8
	c0.4,0.4,0.5,1,0.1,1.4C44,39.3,43.7,39.4,43.4,39.4z"/>
<path class="st0" d="M47,83.1c-0.3,0-0.5-0.1-0.7-0.3L15,51.3c-0.4-0.4-0.4-1,0-1.4c0.4-0.4,1-0.4,1.4,0l31.3,31.5
	c0.4,0.4,0.4,1,0,1.4C47.5,83,47.3,83.1,47,83.1z"/>
<path class="st0" d="M24.7,60.5c-0.5,0-1-0.4-1-1v-10c0-0.6,0.4-1,1-1c0.6,0,1,0.4,1,1v10C25.7,60.1,25.2,60.5,24.7,60.5z"/>
<path class="st0" d="M30.8,79.9c-6.2,0-14.1-2.1-21.1-10.5c-14.3-17-8.6-31.4-8.3-32c0.2-0.5,0.8-0.8,1.3-0.5
	c0.5,0.2,0.7,0.8,0.5,1.3l0,0c-0.1,0.1-5.5,13.9,8,30c13.3,15.8,29.3,8,30,7.7c0.5-0.3,1.1,0,1.3,0.4c0.2,0.5,0.1,1.1-0.4,1.3
	C42,77.6,37.3,79.9,30.8,79.9z"/>
<path class="st0" d="M41,78.3c-0.2,0-0.3,0-0.4-0.1c-0.5-0.2-0.7-0.8-0.4-1.3c0.3-0.7,8.1-16.8-7.6-30.1c-16-13.6-29.7-8.1-29.8-8.1
	c-0.5,0.2-1.1,0-1.3-0.5c-0.2-0.5,0-1.1,0.5-1.3c0.6-0.3,14.9-6,31.9,8.4c17,14.4,8.2,32.4,8.1,32.6C41.7,78.1,41.3,78.3,41,78.3z"
	/>
<g>
	<g>
		<path class="st1" d="M89.3,52.5c0-0.1,0-0.1,0.1-0.2c1.3-3.9,2-8,2-12.3c0-4.5-0.8-8.9-2.3-13c0,0,0-0.1,0-0.1
			C83.8,12.4,69.8,2,53.6,2c0,0,0,0,0,0c-0.1,0-0.2,0-0.3,0.1c0,0,0,0,0,0c-0.1,0-0.1,0.1-0.2,0.1c0,0-0.1,0.1-0.1,0.1c0,0,0,0,0,0
			c-0.1,0.1-0.1,0.2-0.2,0.3c0,0,0,0,0,0c0,0,0,0.1,0,0.1c0,0.1,0,0.2,0,0.2v74c0,0.1,0,0.2,0.1,0.3c0,0,0,0.1,0,0.1c0,0,0,0,0,0
			c0,0,0,0,0,0.1c0,0.1,0.1,0.2,0.2,0.2c0,0,0.1,0.1,0.1,0.1c0.1,0.1,0.1,0.1,0.2,0.1c0,0,0.1,0,0.1,0c0.1,0,0.2,0.1,0.3,0.1
			c0,0,0,0,0,0c0,0,0,0,0,0c0,0,0,0,0,0s0,0,0,0C70.1,78,84.1,67.3,89.3,52.5z M87.7,51H73c0.7-3.3,1-6.9,1-11
			c0-4.3-0.4-8.2-1.2-11.6h14.5c1.2,3.7,1.9,7.6,1.9,11.6C89.4,43.9,88.8,47.5,87.7,51z M70.4,26.4H54.5V4.6
			C57.9,6.5,66.7,12.6,70.4,26.4z M54.5,53h16c-3.6,14.2-12.6,20.5-16,22.4V53z M54.5,51V28.4h16.3c0.8,3.4,1.2,7.3,1.2,11.6
			c0,4.1-0.4,7.7-1.1,11H54.5z M86.7,26.4H72.4C69.2,14,62.1,7.3,57.7,4.2C70.8,5.8,81.9,14.5,86.7,26.4z M57.7,75.8
			c4.5-3.1,11.8-10,14.9-22.8h14.4C82.2,65.2,71.1,74.2,57.7,75.8z"/>
	</g>
</g>
</svg>
