<?xml version="1.0" encoding="utf-8"?>
<!-- Generator: Adobe Illustrator 21.0.0, SVG Export Plug-In . SVG Version: 6.00 Build 0)  -->
<svg version="1.1" id="Layer_1" xmlns="http://www.w3.org/2000/svg" xmlns:xlink="http://www.w3.org/1999/xlink" x="0px" y="0px"
	 viewBox="0 0 81 62" style="enable-background:new 0 0 81 62;" xml:space="preserve">
<style type="text/css">
	.st0{fill:#73BC45;}
</style>
<g>
	<g>
		<path class="st0" d="M46.5,36.5c4.9-2.2,8.2-7.2,8.2-12.9c0-7.8-6.3-14.2-14.2-14.2c-7.8,0-14.2,6.4-14.2,14.2
			c0,5.7,3.4,10.6,8.2,12.9c-9.4,2.2-16.8,9.6-16.8,17.7c0,2.6,2.5,4.7,7.5,6.1c4,1.1,9.4,1.7,15.2,1.7c10.5,0,22.7-2,22.7-7.8
			C63.3,46,56,38.7,46.5,36.5z M28.5,23.6c0-6.7,5.4-12.2,12.1-12.2c6.7,0,12.1,5.5,12.1,12.2c0,6.7-5.4,12.2-12.1,12.2
			C33.9,35.8,28.5,30.3,28.5,23.6z M40.6,60c-11.6,0-20.7-2.5-20.7-5.8c0-8.7,9.7-16.4,20.7-16.4c11,0,20.7,7.7,20.7,16.4
			C61.3,57.4,52.2,60,40.6,60z M64.2,27c4.9-2.2,8.2-7.2,8.2-12.9C72.4,6.4,66.1,0,58.3,0c-4.1,0-7.9,1.7-10.6,4.8
			c-0.4,0.4-0.3,1,0.1,1.4c0.4,0.4,1,0.3,1.4-0.1C51.5,3.5,54.8,2,58.3,2C65,2,70.4,7.5,70.4,14.2c0,6.7-5.4,12.2-12.1,12.2
			c-0.6,0-1,0.4-1,1c0,0.6,0.4,1,1,1c11,0,20.7,7.7,20.7,16.4c0,2-3.4,3.8-9.1,4.8c-0.5,0.1-0.9,0.6-0.8,1.2c0.1,0.5,0.5,0.8,1,0.8
			c0.1,0,0.1,0,0.2,0c7-1.3,10.7-3.6,10.7-6.8C81,36.6,73.6,29.3,64.2,27z M10.4,49.4C5.1,48.4,2,46.6,2,44.7
			c0-8.7,9.7-16.4,20.7-16.4c0.6,0,1-0.4,1-1c0-0.6-0.4-1-1-1c-6.7,0-12.1-5.5-12.1-12.2C10.6,7.5,16,2,22.7,2
			c3.5,0,6.8,1.5,9.1,4.1c0.4,0.4,1,0.5,1.4,0.1c0.4-0.4,0.5-1,0.1-1.4C30.7,1.8,26.8,0,22.7,0C14.9,0,8.6,6.4,8.6,14.2
			c0,5.7,3.4,10.6,8.2,12.9C7.4,29.3,0,36.6,0,44.7c0,3,3.5,5.3,10,6.6c0.1,0,0.1,0,0.2,0c0.5,0,0.9-0.3,1-0.8
			C11.3,50.1,10.9,49.5,10.4,49.4z"/>
	</g>
</g>
</svg>
