<?xml version="1.0" encoding="utf-8"?>
<!-- Generator: Adobe Illustrator 21.0.0, SVG Export Plug-In . SVG Version: 6.00 Build 0)  -->
<svg version="1.1" id="Layer_1" xmlns="http://www.w3.org/2000/svg" xmlns:xlink="http://www.w3.org/1999/xlink" x="0px" y="0px"
	 viewBox="0 0 127.4 127.5" style="enable-background:new 0 0 127.4 127.5;" xml:space="preserve">
<style type="text/css">
	.st0{fill:#73BC45;}
	.st1{fill:#A4EB78;}
	.st2{fill:#FFFFFF;}
	.st3{fill-rule:evenodd;clip-rule:evenodd;fill:#FFFFFF;}
</style>
<g>
	<rect x="-0.1" y="0" class="st0" width="127.5" height="127.5"/>
</g>
<g>
	<path class="st1" d="M63.7,110.7c-25.4,0-46-20.6-46-46c0-2.1,0.1-4.1,0.4-6.1l2,0.3c-0.3,1.9-0.4,3.9-0.4,5.9
		c0,24.3,19.7,44,44,44c9.8,0,19.1-3.2,26.8-9.1l1.2,1.6C83.7,107.4,74,110.7,63.7,110.7z M103.7,87.4l-1.7-1c1.3-2.2,2.3-4.6,3.2-7
		l1.9,0.7C106.2,82.6,105.1,85,103.7,87.4z M109,72.9l-2-0.4c0.5-2.6,0.7-5.2,0.7-7.8h2C109.7,67.5,109.5,70.2,109,72.9z
		 M107.3,58.8c-2.9-21.7-21.6-38.1-43.6-38.1c-8.4,0-16.6,2.4-23.7,6.9l-1.1-1.7c7.4-4.7,16-7.2,24.8-7.2c23,0,42.6,17.1,45.6,39.9
		L107.3,58.8z M21.1,53.7l-1.9-0.5c1-3.8,2.5-7.5,4.4-10.9l1.7,1C23.4,46.5,22,50.1,21.1,53.7z"/>
</g>
<g>
	
		<rect x="121.3" y="116" transform="matrix(0.7071 -0.7071 0.7071 0.7071 -50.6781 122.2802)" class="st2" width="2" height="12.6"/>
</g>
<g>
	
		<rect x="106.7" y="99.4" transform="matrix(0.7071 -0.7071 0.7071 0.7071 -44.638 107.6982)" class="st2" width="2" height="16.6"/>
</g>
<g>
	<rect x="18.7" y="8" transform="matrix(0.7071 -0.7071 0.7071 0.7071 -8.2123 19.7595)" class="st2" width="2" height="23.5"/>
</g>
<g>
	<rect x="2.4" y="-0.3" transform="matrix(0.7071 -0.7071 0.7071 0.7071 -1.4418 3.4138)" class="st2" width="2" height="7.6"/>
</g>
<g>
	<path class="st2" d="M77.7,80.7h-28c-5,0-9-4-9-9v-20c0-5,4-9,9-9h28c5,0,9,4,9,9v20C86.7,76.7,82.7,80.7,77.7,80.7z M49.7,44.7
		c-3.9,0-7,3.1-7,7v20c0,3.9,3.1,7,7,7h28c3.9,0,7-3.1,7-7v-20c0-3.9-3.1-7-7-7H49.7z"/>
</g>
<g>
	<rect x="41.7" y="68.3" class="st2" width="44.1" height="2"/>
</g>
<g>
	<path class="st3" d="M59.8,53.5l8.8,5.3L59.8,64l1.8-5.3L59.8,53.5z"/>
</g>
<g>
	<rect x="53.7" y="86.7" class="st2" width="20" height="2"/>
</g>
<g>
	<rect x="62.7" y="79.7" class="st2" width="2" height="8.3"/>
</g>
</svg>
