<?xml version="1.0" encoding="utf-8"?>
<!-- Generator: Adobe Illustrator 21.0.0, SVG Export Plug-In . SVG Version: 6.00 Build 0)  -->
<svg version="1.1" id="Layer_1" xmlns="http://www.w3.org/2000/svg" xmlns:xlink="http://www.w3.org/1999/xlink" x="0px" y="0px"
	 viewBox="0 0 85 97" style="enable-background:new 0 0 85 97;" xml:space="preserve">
<style type="text/css">
	.st0{fill-rule:evenodd;clip-rule:evenodd;fill:#8DC63F;}
</style>
<g>
	<g>
		<path class="st0" d="M65,74V7c0-4-3-7-7-7H7C3,0,0,3,0,7v67c0,4,3,6,7,6h51C62,80,65,78,65,74z M2,73.8L2,7c0-3,2-5,5-5h51
			c2.9,0,5,2,5,5v67c0,3-2,4-5,4H7C4,78,2,77,2,73.8z M78.3,16.5h-7.3c-0.6,0-1,0.4-1,1c0,0.6,0.4,1,1,1h7.3c2.6,0,4.7,2.1,4.7,4.7
			v67.2c0,2.6-2.1,4.7-4.7,4.7H26.7c-2.6,0-4.7-2.1-4.7-4.7v-3.6c0-0.6-0.4-1-1-1c-0.6,0-1,0.4-1,1v3.6c0,3.7,3,6.7,6.7,6.7h51.6
			c3.7,0,6.7-3,6.7-6.7V23.2C85,19.5,82,16.5,78.3,16.5z M16,20h19c0.6,0,1-0.4,1-1c0-0.6-0.4-1-1-1H16c-0.6,0-1,0.4-1,1
			C15,19.6,15.4,20,16,20z M50,32H16c-0.6,0-1,0.4-1,1c0,0.6,0.4,1,1,1h34c0.6,0,1-0.4,1-1C51,32.4,50.6,32,50,32z M50,46H16
			c-0.6,0-1,0.4-1,1c0,0.6,0.4,1,1,1h34c0.6,0,1-0.4,1-1C51,46.4,50.6,46,50,46z M50,60H16c-0.6,0-1,0.4-1,1c0,0.6,0.4,1,1,1h34
			c0.6,0,1-0.4,1-1C51,60.4,50.6,60,50,60z"/>
	</g>
</g>
</svg>
