<svg version="1.1" id="Layer_1" xmlns="http://www.w3.org/2000/svg" xmlns:xlink="http://www.w3.org/1999/xlink" x="0px" y="0px"
	 width="100%" viewBox="0 0 535 505" enable-background="new 0 0 535 505" xml:space="preserve">
<path fill="#FFFFFF" opacity="0" stroke="none" 
	d="
M298.000000,506.000000 
	C198.690414,506.000000 99.880814,506.000000 1.035611,506.000000 
	C1.035611,337.730835 1.035611,169.461685 1.035611,1.096263 
	C179.226273,1.096263 357.452606,1.096263 535.839478,1.096263 
	C535.839478,169.333206 535.839478,337.666595 535.839478,506.000000 
	C456.794952,506.000000 377.647491,506.000000 298.000000,506.000000 
M195.999817,291.499847 
	C184.414505,280.914062 172.772079,270.389923 161.260162,259.724884 
	C150.083633,249.370575 139.089417,238.819534 127.919968,228.457458 
	C122.001190,222.966492 115.735916,217.843903 109.911972,212.257965 
	C107.049500,209.512466 103.670578,208.885345 101.035667,210.828827 
	C99.195763,212.185944 98.126160,215.709427 98.120750,218.268250 
	C97.970192,289.429413 98.000000,360.590973 98.000000,431.752472 
	C98.000000,433.700073 98.000000,435.647644 98.000000,438.000214 
	C85.193588,438.000214 72.898453,438.127716 60.608685,437.926849 
	C56.632431,437.861877 55.350636,439.856262 55.012722,443.198273 
	C54.456600,448.698456 56.971516,450.996246 63.575710,450.996460 
	C200.232437,451.001190 336.889160,451.001251 473.545898,450.995789 
	C479.660034,450.995544 482.045197,448.974274 481.998840,443.937775 
	C481.959015,439.610016 479.717560,438.002075 473.702515,438.000763 
	C461.593567,437.998138 449.484619,438.000000 437.307526,438.000000 
	C437.307526,374.722290 437.307526,311.993286 437.307526,248.999435 
	C439.427307,248.999435 441.243500,249.059982 443.054413,248.987640 
	C447.801819,248.797989 449.948242,246.731766 449.973022,241.923508 
	C450.046997,227.591599 450.056396,213.258713 449.967712,198.926971 
	C449.937897,194.106033 447.715363,192.010056 443.050232,192.008057 
	C408.386078,191.993286 373.721954,191.992950 339.057800,192.007614 
	C333.819336,192.009842 332.014435,193.859482 332.006317,199.176041 
	C331.986786,212.008408 332.123383,224.842422 331.957397,237.672668 
	C331.843384,246.486343 331.370361,249.509079 342.901794,249.121368 
	C343.159607,249.112717 343.428467,249.433517 343.406372,249.419510 
	C343.406372,270.604980 343.406372,291.590729 343.406372,313.533447 
	C335.252319,306.223938 327.854950,299.704651 320.582428,293.048920 
	C307.654388,281.217346 294.759155,269.349121 281.930725,257.409668 
	C270.534027,246.802719 259.254395,236.070007 247.907074,225.409882 
	C243.205261,220.992798 238.752457,216.228790 233.605133,212.405060 
	C231.295563,210.689346 227.366592,209.929916 224.520645,210.493774 
	C221.494186,211.093414 220.910202,214.479538 220.924286,217.797852 
	C221.053085,248.128433 221.000000,278.459778 221.000000,308.790924 
	C221.000000,310.352295 221.000000,311.913635 221.000000,314.527405 
	C212.252289,306.483887 204.377136,299.242676 195.999817,291.499847 
M273.017944,75.453140 
	C279.246735,71.388588 286.310730,69.156128 293.473999,70.189445 
	C313.894867,73.135216 325.514679,85.591194 328.088745,106.155632 
	C328.382324,108.500893 329.480225,112.060982 331.078552,112.637817 
	C333.904388,113.657669 337.157440,113.368546 340.165070,110.674355 
	C343.432587,107.747375 347.671051,105.505623 351.865387,104.083260 
	C367.323059,98.841255 384.976715,111.702560 384.996033,127.908340 
	C385.014496,143.398682 384.994354,158.889053 385.002899,174.379410 
	C385.006073,180.120819 387.797974,183.955215 391.958527,183.988663 
	C396.122955,184.022125 398.992188,180.163712 398.996552,174.462341 
	C399.007111,160.637619 398.978455,146.812836 399.005981,132.988174 
	C399.034454,118.698868 394.722321,106.460236 382.980347,97.403099 
	C375.539520,91.663643 366.872711,89.437897 357.934326,89.316383 
	C352.263336,89.239288 346.560486,91.506012 340.661377,92.766617 
	C340.644958,92.755310 340.286804,92.634712 340.137756,92.387856 
	C335.036743,83.939384 331.269287,74.720497 322.990845,68.328171 
	C309.330872,57.780418 294.352325,54.283028 277.794556,58.713276 
	C255.959869,64.555435 242.832657,82.932922 241.013779,104.458969 
	C240.571075,109.698006 242.727554,112.771233 246.828171,112.999191 
	C252.601440,113.320137 254.747314,111.393059 254.977310,105.269753 
	C255.464905,92.287865 261.309509,82.552391 273.017944,75.453140 
M337.317230,171.941330 
	C339.718994,169.946411 342.372894,168.185318 344.478271,165.915482 
	C352.914124,156.820541 356.195282,145.492981 357.968719,133.580063 
	C358.584290,129.445160 355.913544,126.325203 351.569397,126.002731 
	C346.699860,125.641258 344.252625,127.705383 343.970123,132.161072 
	C343.794891,134.925262 343.554657,137.722839 342.946899,140.415894 
	C339.533508,155.541260 325.424835,167.331970 310.567200,166.914673 
	C298.247925,166.568665 289.036133,160.444046 282.510681,150.041275 
	C279.759979,145.656113 275.598022,144.993301 271.495850,148.040604 
	C255.066574,160.245056 236.079391,147.693954 232.961624,133.353821 
	C232.019028,129.018356 230.131317,126.104881 225.105453,124.794220 
	C211.923203,121.356483 204.828705,109.932129 204.011688,97.448235 
	C203.713409,92.890289 201.700119,90.940178 197.215897,90.993019 
	C192.885300,91.044060 191.036209,93.292351 190.979279,97.515854 
	C190.773193,112.809807 199.225967,129.299637 217.050018,136.651901 
	C218.398376,137.208084 219.764343,138.614975 220.357712,139.962906 
	C224.158600,148.597244 229.384109,156.127350 237.676270,160.842224 
	C249.625443,167.636459 262.105438,167.916122 274.593262,162.409866 
	C289.338196,182.008026 318.286438,185.750763 337.317230,171.941330 
z"/>
<path fill="#4540D7" opacity="1.000000" stroke="none" 
	d="
M196.250916,291.750671 
	C204.377136,299.242676 212.252289,306.483887 221.000000,314.527405 
	C221.000000,311.913635 221.000000,310.352295 221.000000,308.790924 
	C221.000000,278.459778 221.053085,248.128433 220.924286,217.797852 
	C220.910202,214.479538 221.494186,211.093414 224.520645,210.493774 
	C227.366592,209.929916 231.295563,210.689346 233.605133,212.405060 
	C238.752457,216.228790 243.205261,220.992798 247.907074,225.409882 
	C259.254395,236.070007 270.534027,246.802719 281.930725,257.409668 
	C294.759155,269.349121 307.654388,281.217346 320.582428,293.048920 
	C327.854950,299.704651 335.252319,306.223938 343.406372,313.533447 
	C343.406372,291.590729 343.406372,270.604980 343.406372,249.419510 
	C343.428467,249.433517 343.159607,249.112717 342.901794,249.121368 
	C331.370361,249.509079 331.843384,246.486343 331.957397,237.672668 
	C332.123383,224.842422 331.986786,212.008408 332.006317,199.176041 
	C332.014435,193.859482 333.819336,192.009842 339.057800,192.007614 
	C373.721954,191.992950 408.386078,191.993286 443.050232,192.008057 
	C447.715363,192.010056 449.937897,194.106033 449.967712,198.926971 
	C450.056396,213.258713 450.046997,227.591599 449.973022,241.923508 
	C449.948242,246.731766 447.801819,248.797989 443.054413,248.987640 
	C441.243500,249.059982 439.427307,248.999435 437.307526,248.999435 
	C437.307526,311.993286 437.307526,374.722290 437.307526,438.000000 
	C449.484619,438.000000 461.593567,437.998138 473.702515,438.000763 
	C479.717560,438.002075 481.959015,439.610016 481.998840,443.937775 
	C482.045197,448.974274 479.660034,450.995544 473.545898,450.995789 
	C336.889160,451.001251 200.232437,451.001190 63.575710,450.996460 
	C56.971516,450.996246 54.456600,448.698456 55.012722,443.198273 
	C55.350636,439.856262 56.632431,437.861877 60.608685,437.926849 
	C72.898453,438.127716 85.193588,438.000214 98.000000,438.000214 
	C98.000000,435.647644 98.000000,433.700073 98.000000,431.752472 
	C98.000000,360.590973 97.970192,289.429413 98.120750,218.268250 
	C98.126160,215.709427 99.195763,212.185944 101.035667,210.828827 
	C103.670578,208.885345 107.049500,209.512466 109.911972,212.257965 
	C115.735916,217.843903 122.001190,222.966492 127.919968,228.457458 
	C139.089417,238.819534 150.083633,249.370575 161.260162,259.724884 
	C172.772079,270.389923 184.414505,280.914062 196.250916,291.750671 
M247.002106,243.502869 
	C242.901733,239.775345 238.801361,236.047821 234.284576,231.941742 
	C234.284576,300.968170 234.284576,369.303589 234.284576,437.666809 
	C239.629837,437.666809 244.685684,437.666809 250.000000,437.666809 
	C250.000000,435.525513 250.000000,433.711273 250.000000,431.897064 
	C250.000000,389.746826 249.996185,347.596588 250.004333,305.446350 
	C250.005478,299.500336 251.916916,297.024353 256.428070,297.000366 
	C261.849060,296.971558 262.999023,298.438202 262.999268,305.414886 
	C263.000732,347.731720 263.000000,390.048584 263.000000,432.365417 
	C263.000000,434.134949 263.000000,435.904510 263.000000,437.662140 
	C290.314301,437.662140 317.030548,437.662140 343.749878,437.662140 
	C343.858734,436.848022 343.979584,436.365143 343.979767,435.882202 
	C343.992645,402.728485 344.036987,369.574554 343.889862,336.421509 
	C343.881714,334.582245 342.716858,332.294586 341.351288,330.988495 
	C332.511475,322.533783 323.479492,314.279388 314.484619,305.987488 
	C306.468292,298.597687 298.387848,291.277313 290.390228,283.867401 
	C276.073730,270.602966 261.798248,257.294281 247.002106,243.502869 
M217.596817,330.076202 
	C214.282639,327.100739 210.937347,324.159119 207.659790,321.143890 
	C194.762817,309.279266 181.843246,297.438629 169.014725,285.500275 
	C153.260574,270.839203 137.617584,256.058655 121.858421,241.403000 
	C118.610420,238.382446 115.062523,235.684372 111.324173,232.563248 
	C111.324173,301.556976 111.324173,369.638336 111.324173,437.625488 
	C116.716057,437.625488 121.774292,437.625488 127.000000,437.625488 
	C127.000000,424.595337 126.999992,411.938934 127.000000,399.282562 
	C127.000008,367.952728 126.993317,336.622894 127.005791,305.293060 
	C127.008217,299.205566 128.943100,296.980988 134.084595,297.000153 
	C139.466354,297.020233 139.999512,297.715973 139.999634,304.753021 
	C140.000381,347.248291 140.000000,389.743530 140.000000,432.238800 
	C140.000000,434.020874 140.000000,435.802917 140.000000,437.698486 
	C167.230255,437.698486 193.951431,437.698486 220.793137,437.698486 
	C220.877670,436.768555 220.986893,436.126648 220.987091,435.484650 
	C220.997192,402.488342 221.047409,369.491791 220.875992,336.496368 
	C220.865799,334.536438 219.068954,332.585785 217.596817,330.076202 
M358.000000,343.500000 
	C358.000000,374.918976 358.000000,406.337921 358.000000,437.610840 
	C380.408112,437.610840 402.130493,437.610840 423.746552,437.610840 
	C423.746552,374.622192 423.746552,312.023041 423.746552,249.300751 
	C401.770844,249.300751 380.049744,249.300751 358.000000,249.300751 
	C358.000000,280.566864 358.000000,311.533447 358.000000,343.500000 
M345.072021,233.996109 
	C347.141083,234.664062 349.207397,235.903305 351.279663,235.913406 
	C378.072327,236.044144 404.865845,236.004288 431.659149,235.987762 
	C433.074158,235.986893 434.489075,235.809525 436.383545,235.682053 
	C436.383545,225.586670 436.383545,215.974991 436.383545,206.270813 
	C421.639343,203.993881 406.525696,205.217743 391.460327,205.040192 
	C376.058929,204.858673 360.653687,205.000000 345.009521,205.000000 
	C345.009521,214.803925 345.009521,223.937927 345.072021,233.996109 
z"/>
<path fill="#4540D7" opacity="1.000000" stroke="none" 
	d="
M272.719971,75.684708 
	C261.309509,82.552391 255.464905,92.287865 254.977310,105.269753 
	C254.747314,111.393059 252.601440,113.320137 246.828171,112.999191 
	C242.727554,112.771233 240.571075,109.698006 241.013779,104.458969 
	C242.832657,82.932922 255.959869,64.555435 277.794556,58.713276 
	C294.352325,54.283028 309.330872,57.780418 322.990845,68.328171 
	C331.269287,74.720497 335.036743,83.939384 340.137756,92.387856 
	C340.286804,92.634712 340.644958,92.755310 340.661377,92.766617 
	C346.560486,91.506012 352.263336,89.239288 357.934326,89.316383 
	C366.872711,89.437897 375.539520,91.663643 382.980347,97.403099 
	C394.722321,106.460236 399.034454,118.698868 399.005981,132.988174 
	C398.978455,146.812836 399.007111,160.637619 398.996552,174.462341 
	C398.992188,180.163712 396.122955,184.022125 391.958527,183.988663 
	C387.797974,183.955215 385.006073,180.120819 385.002899,174.379410 
	C384.994354,158.889053 385.014496,143.398682 384.996033,127.908340 
	C384.976715,111.702560 367.323059,98.841255 351.865387,104.083260 
	C347.671051,105.505623 343.432587,107.747375 340.165070,110.674355 
	C337.157440,113.368546 333.904388,113.657669 331.078552,112.637817 
	C329.480225,112.060982 328.382324,108.500893 328.088745,106.155632 
	C325.514679,85.591194 313.894867,73.135216 293.473999,70.189445 
	C286.310730,69.156128 279.246735,71.388588 272.719971,75.684708 
z"/>
<path fill="#4540D7" opacity="1.000000" stroke="none" 
	d="
M336.956299,172.009247 
	C318.286438,185.750763 289.338196,182.008026 274.593262,162.409866 
	C262.105438,167.916122 249.625443,167.636459 237.676270,160.842224 
	C229.384109,156.127350 224.158600,148.597244 220.357712,139.962906 
	C219.764343,138.614975 218.398376,137.208084 217.050018,136.651901 
	C199.225967,129.299637 190.773193,112.809807 190.979279,97.515854 
	C191.036209,93.292351 192.885300,91.044060 197.215897,90.993019 
	C201.700119,90.940178 203.713409,92.890289 204.011688,97.448235 
	C204.828705,109.932129 211.923203,121.356483 225.105453,124.794220 
	C230.131317,126.104881 232.019028,129.018356 232.961624,133.353821 
	C236.079391,147.693954 255.066574,160.245056 271.495850,148.040604 
	C275.598022,144.993301 279.759979,145.656113 282.510681,150.041275 
	C289.036133,160.444046 298.247925,166.568665 310.567200,166.914673 
	C325.424835,167.331970 339.533508,155.541260 342.946899,140.415894 
	C343.554657,137.722839 343.794891,134.925262 343.970123,132.161072 
	C344.252625,127.705383 346.699860,125.641258 351.569397,126.002731 
	C355.913544,126.325203 358.584290,129.445160 357.968719,133.580063 
	C356.195282,145.492981 352.914124,156.820541 344.478271,165.915482 
	C342.372894,168.185318 339.718994,169.946411 336.956299,172.009247 
z"/>
<path fill="#FFFFFF" opacity="1.000000" stroke="none" 
	d="
M247.253860,243.753479 
	C261.798248,257.294281 276.073730,270.602966 290.390228,283.867401 
	C298.387848,291.277313 306.468292,298.597687 314.484619,305.987488 
	C323.479492,314.279388 332.511475,322.533783 341.351288,330.988495 
	C342.716858,332.294586 343.881714,334.582245 343.889862,336.421509 
	C344.036987,369.574554 343.992645,402.728485 343.979767,435.882202 
	C343.979584,436.365143 343.858734,436.848022 343.749878,437.662140 
	C317.030548,437.662140 290.314301,437.662140 263.000000,437.662140 
	C263.000000,435.904510 263.000000,434.134949 263.000000,432.365417 
	C263.000000,390.048584 263.000732,347.731720 262.999268,305.414886 
	C262.999023,298.438202 261.849060,296.971558 256.428070,297.000366 
	C251.916916,297.024353 250.005478,299.500336 250.004333,305.446350 
	C249.996185,347.596588 250.000000,389.746826 250.000000,431.897064 
	C250.000000,433.711273 250.000000,435.525513 250.000000,437.666809 
	C244.685684,437.666809 239.629837,437.666809 234.284576,437.666809 
	C234.284576,369.303589 234.284576,300.968170 234.284576,231.941742 
	C238.801361,236.047821 242.901733,239.775345 247.253860,243.753479 
z"/>
<path fill="#FFFFFF" opacity="1.000000" stroke="none" 
	d="
M217.850159,330.353516 
	C219.068954,332.585785 220.865799,334.536438 220.875992,336.496368 
	C221.047409,369.491791 220.997192,402.488342 220.987091,435.484650 
	C220.986893,436.126648 220.877670,436.768555 220.793137,437.698486 
	C193.951431,437.698486 167.230255,437.698486 140.000000,437.698486 
	C140.000000,435.802917 140.000000,434.020874 140.000000,432.238800 
	C140.000000,389.743530 140.000381,347.248291 139.999634,304.753021 
	C139.999512,297.715973 139.466354,297.020233 134.084595,297.000153 
	C128.943100,296.980988 127.008217,299.205566 127.005791,305.293060 
	C126.993317,336.622894 127.000008,367.952728 127.000000,399.282562 
	C126.999992,411.938934 127.000000,424.595337 127.000000,437.625488 
	C121.774292,437.625488 116.716057,437.625488 111.324173,437.625488 
	C111.324173,369.638336 111.324173,301.556976 111.324173,232.563248 
	C115.062523,235.684372 118.610420,238.382446 121.858421,241.403000 
	C137.617584,256.058655 153.260574,270.839203 169.014725,285.500275 
	C181.843246,297.438629 194.762817,309.279266 207.659790,321.143890 
	C210.937347,324.159119 214.282639,327.100739 217.850159,330.353516 
z"/>
<path fill="#FFFFFF" opacity="1.000000" stroke="none" 
	d="
M358.000000,343.000000 
	C358.000000,311.533447 358.000000,280.566864 358.000000,249.300751 
	C380.049744,249.300751 401.770844,249.300751 423.746552,249.300751 
	C423.746552,312.023041 423.746552,374.622192 423.746552,437.610840 
	C402.130493,437.610840 380.408112,437.610840 358.000000,437.610840 
	C358.000000,406.337921 358.000000,374.918976 358.000000,343.000000 
z"/>
<path fill="#FFFFFF" opacity="1.000000" stroke="none" 
	d="
M345.040771,233.534027 
	C345.009521,223.937927 345.009521,214.803925 345.009521,205.000000 
	C360.653687,205.000000 376.058929,204.858673 391.460327,205.040192 
	C406.525696,205.217743 421.639343,203.993881 436.383545,206.270813 
	C436.383545,215.974991 436.383545,225.586670 436.383545,235.682053 
	C434.489075,235.809525 433.074158,235.986893 431.659149,235.987762 
	C404.865845,236.004288 378.072327,236.044144 351.279663,235.913406 
	C349.207397,235.903305 347.141083,234.664062 345.040771,233.534027 
z"/>
</svg>