<svg width="200" height="200" viewBox="0 0 200 200" fill="none" xmlns="http://www.w3.org/2000/svg">
<path fill-rule="evenodd" clip-rule="evenodd" d="M0 100C0 44.7715 44.7715 0 100 0C155.228 0 200 44.7715 200 100C200 155.228 155.228 200 100 200C44.7715 200 0 155.228 0 100ZM10.5942 100C10.5942 103.217 10.7641 106.394 11.0954 109.524L11.0975 109.526C15.5705 113.816 27.1599 122.1 46.3101 125.582C46.7742 125.667 47.2471 125.752 47.7279 125.839C50.6284 126.364 53.8174 126.942 57.1084 127.617C43.56 108.13 45.7151 83.3125 59.5184 62.9254C65.088 54.6992 70.7316 48.029 75.9929 41.8106C76.9551 40.6734 77.9046 39.5512 78.8384 38.4374C84.9164 31.1884 90.4573 24.1608 95.3257 15.0523L97.6919 10.6252C96.9371 10.6443 96.1845 10.6728 95.4344 10.7105C94.2171 10.7717 93.0061 10.8572 91.802 10.9667C91.0905 11.0314 90.3815 11.1044 89.6749 11.1856C88.4804 11.3229 87.2931 11.4838 86.1135 11.6677C43.3309 18.3386 10.5942 55.3462 10.5942 100ZM14.1114 124.907L14.1092 124.906C19.0382 141.933 28.8935 156.869 42.0311 168.068C47.0181 172.319 52.478 176.031 58.3208 179.115L58.3193 179.114C52.9873 174.196 48.4328 168.799 45.132 163.708C44.3363 162.48 45.9224 161.188 47.1052 162.049C51.9622 165.584 58.0316 169.049 64.4897 172.085C66.9917 162.797 71.015 153.256 76.213 144.721C72.9309 142.952 68.8466 141.462 64.2501 140.188C58.1689 138.504 51.9531 137.376 45.7499 136.249C45.6236 136.227 45.4975 136.204 45.3717 136.181C34.4009 134.193 23.6981 130.678 14.1114 124.907ZM104.671 15.0523L102.304 10.6252C141.775 11.6246 174.888 38.205 185.685 74.407C177.837 79.6251 168.083 85.2562 151.567 91.3413C150.323 81.5403 146.5 71.8204 140.478 62.9254C134.908 54.6992 129.265 48.029 124.003 41.8106C123.041 40.6733 122.092 39.5512 121.158 38.4374C115.08 31.1884 109.539 24.1608 104.671 15.0523ZM128.317 99.46C108.917 108.047 94.6558 119.557 82.365 135.77C78.2459 133.812 74.3827 131.127 70.9647 127.709C55.039 111.783 54.8186 88.7666 68.2925 68.866C73.518 61.148 78.7589 54.9507 84.0145 48.736L84.019 48.7308C84.9981 47.5729 85.9778 46.4144 86.958 45.2454C91.4311 39.9105 95.8552 34.4195 99.9982 27.9875C104.141 34.4195 108.565 39.9105 113.038 45.2454C114.02 46.4158 115.001 47.5757 115.981 48.735L115.982 48.7361C121.238 54.9508 126.478 61.148 131.704 68.866C137.414 77.2997 140.645 86.3165 141.295 95.0499C140.413 95.3275 139.489 95.6019 138.497 95.8964L138.495 95.897C138.163 95.9956 137.824 96.0964 137.475 96.2004C134.75 97.0146 131.669 97.9765 128.317 99.46ZM189.254 94.8191C189.352 96.5336 189.402 98.261 189.402 100C189.402 139.477 163.816 172.978 128.322 184.825C126.083 185.572 123.805 186.233 121.492 186.804C121.463 186.811 121.435 186.818 121.406 186.825C121.375 186.833 121.344 186.84 121.313 186.848C121.251 186.863 121.189 186.878 121.127 186.893C118.732 187.473 116.299 187.957 113.832 188.34C111.727 188.667 109.597 188.921 107.446 189.098C106.785 189.153 106.122 189.2 105.457 189.24L105.451 189.24L105.424 189.242C104.816 189.278 104.207 189.309 103.596 189.333C121.074 181.193 136.07 168.602 149.259 150.168C150.194 148.861 148.402 147.481 147.255 148.608C114.928 180.389 87.673 185.275 72.8789 183.496C74.7242 171.445 80.0739 157.505 87.8688 146.212C88.0738 145.915 88.2803 145.621 88.4883 145.328L88.5863 145.19C88.6196 145.144 88.653 145.097 88.6865 145.05C100.444 128.657 113.79 117.478 132.606 109.149C135.319 107.949 137.871 107.141 140.508 106.353C140.66 106.308 140.812 106.262 140.966 106.217L141.483 106.064C143.779 105.383 146.263 104.647 148.698 103.664C148.998 103.543 149.299 103.417 149.601 103.287C168.058 96.9434 179.408 90.967 188.215 85.396C188.723 88.4866 189.072 91.6305 189.254 94.8191Z" fill="url(#paint0_linear_27_1107)"/>
<path fill-rule="evenodd" clip-rule="evenodd" d="M100 0C44.7715 0 0 44.7715 0 100C0 155.228 44.7715 200 100 200C155.228 200 200 155.228 200 100C200 44.7715 155.228 0 100 0ZM97.6919 10.6252L95.3257 15.0523C90.4573 24.1608 84.9164 31.1884 78.8384 38.4374C77.9046 39.5512 76.9551 40.6734 75.9929 41.8106C70.7316 48.029 65.088 54.6992 59.5184 62.9254C45.7151 83.3125 43.56 108.13 57.1084 127.617C53.8174 126.942 50.6284 126.364 47.7279 125.839C47.2471 125.752 46.7742 125.667 46.3101 125.582C27.1599 122.1 15.5705 113.816 11.0975 109.526C10.766 106.396 10.596 103.218 10.596 100C10.596 55.3469 43.3318 18.3393 86.1135 11.6677C87.2931 11.4838 88.4804 11.3229 89.6749 11.1856C90.3815 11.1044 91.0905 11.0314 91.802 10.9667C93.0061 10.8572 94.2171 10.7717 95.4344 10.7105C96.1845 10.6728 96.9371 10.6443 97.6919 10.6252ZM58.3193 179.114C52.9873 174.196 48.4328 168.799 45.132 163.708C44.3363 162.48 45.9224 161.188 47.1052 162.049C51.9622 165.584 58.0316 169.049 64.4897 172.085C66.9917 162.797 71.015 153.256 76.213 144.721C72.9309 142.952 68.8466 141.462 64.2501 140.188C58.1689 138.504 51.9531 137.376 45.7499 136.249C45.6236 136.227 45.4975 136.204 45.3717 136.181C34.4009 134.193 23.6981 130.678 14.1114 124.907C20.9113 148.397 37.086 167.904 58.3193 179.114ZM189.254 94.8191C189.352 96.5336 189.402 98.261 189.402 100C189.402 139.477 163.816 172.978 128.322 184.825C126.083 185.572 123.805 186.233 121.492 186.804L121.406 186.825L121.313 186.848L121.127 186.893C118.732 187.473 116.299 187.957 113.832 188.34C111.727 188.667 109.597 188.921 107.446 189.098C106.785 189.153 106.122 189.2 105.457 189.24L105.451 189.24L105.424 189.242C104.816 189.278 104.207 189.309 103.596 189.333C121.074 181.193 136.07 168.602 149.259 150.168C150.194 148.861 148.402 147.481 147.255 148.608C114.928 180.389 87.673 185.275 72.8789 183.496C74.7242 171.445 80.0739 157.505 87.8688 146.212C88.0738 145.915 88.2803 145.621 88.4883 145.328L88.5863 145.19C88.6196 145.144 88.653 145.097 88.6865 145.05C100.444 128.657 113.79 117.478 132.606 109.149C135.319 107.949 137.871 107.141 140.508 106.353C140.66 106.308 140.812 106.262 140.966 106.217L141.483 106.064C143.779 105.383 146.263 104.647 148.698 103.664C148.998 103.543 149.299 103.417 149.601 103.287C168.058 96.9434 179.408 90.967 188.215 85.396C188.723 88.4866 189.072 91.6305 189.254 94.8191ZM128.317 99.46C108.917 108.047 94.6558 119.557 82.365 135.77C78.2459 133.812 74.3827 131.127 70.9647 127.709C55.039 111.783 54.8186 88.7666 68.2925 68.866C73.518 61.148 78.7589 54.9507 84.0145 48.736L84.019 48.7308C84.9981 47.5729 85.9778 46.4144 86.958 45.2454C91.4311 39.9105 95.8552 34.4195 99.9982 27.9875C104.141 34.4195 108.565 39.9105 113.038 45.2454C114.02 46.4158 115.001 47.5757 115.981 48.735L115.982 48.7361C121.238 54.9508 126.478 61.148 131.704 68.866C137.414 77.2997 140.645 86.3165 141.295 95.0499C140.413 95.3275 139.489 95.6019 138.497 95.8964L138.495 95.897C138.163 95.9956 137.824 96.0964 137.475 96.2004C134.75 97.0146 131.669 97.9765 128.317 99.46ZM102.304 10.6252L104.671 15.0523C109.539 24.1608 115.08 31.1884 121.158 38.4374C122.092 39.5512 123.041 40.6733 124.003 41.8106C129.265 48.029 134.908 54.6992 140.478 62.9254C146.5 71.8204 150.323 81.5403 151.567 91.3413C168.083 85.2562 177.837 79.6251 185.685 74.407C174.888 38.205 141.775 11.6246 102.304 10.6252Z" fill="url(#paint1_linear_27_1107)"/>
<defs>
<linearGradient id="paint0_linear_27_1107" x1="100" y1="0" x2="100" y2="200" gradientUnits="userSpaceOnUse">
<stop stop-color="#8B40FF"/>
<stop offset="0.34375" stop-color="#1C73FE"/>
<stop offset="0.65625" stop-color="#00B7E0"/>
<stop offset="1" stop-color="#01FEB6"/>
</linearGradient>
<linearGradient id="paint1_linear_27_1107" x1="100" y1="0" x2="100" y2="200" gradientUnits="userSpaceOnUse">
<stop stop-color="#8B40FF"/>
<stop offset="0.34375" stop-color="#1C73FE"/>
<stop offset="0.65625" stop-color="#00B7E0"/>
<stop offset="1" stop-color="#01FEB6"/>
</linearGradient>
</defs>
</svg>
