<?xml version="1.0" encoding="utf-8"?>
<!-- Generator: Adobe Illustrator 21.0.0, SVG Export Plug-In . SVG Version: 6.00 Build 0)  -->
<svg version="1.1" id="Layer_1" xmlns="http://www.w3.org/2000/svg" xmlns:xlink="http://www.w3.org/1999/xlink" x="0px" y="0px"
	 viewBox="0 0 252.7 256.7" style="enable-background:new 0 0 252.7 256.7;" xml:space="preserve">
<style type="text/css">
	.st0{fill:#E45726;}
	.st1{fill:#94B5CA;}
	.st2{fill:#E7541F;}
</style>
<g>
	<path class="st0" d="M214.3,200.7H87c-3.8,0-7.1-2-9-5.2c-1.9-3.3-1.8-7.2,0.1-10.4l63.7-105.4c1.9-3.1,5.2-5,8.8-5l0,0
		c3.6,0,6.9,1.9,8.8,5l63.7,105.4c1.9,3.2,2,7.1,0.1,10.4C221.4,198.8,218.1,200.7,214.3,200.7z M150.7,76.7c-2.9,0-5.6,1.5-7.1,4
		L79.9,186.2c-1.6,2.6-1.6,5.7-0.1,8.4c1.5,2.6,4.2,4.2,7.2,4.2h127.3c3,0,5.7-1.6,7.2-4.2s1.4-5.8-0.1-8.4L157.7,80.8
		C156.2,78.2,153.6,76.7,150.7,76.7z"/>
</g>
<g>
	<g>
		<g>
			<path class="st0" d="M151.2,183.7c-4.7,0-8.5-3.8-8.5-8.5s3.8-8.5,8.5-8.5s8.5,3.8,8.5,8.5S155.8,183.7,151.2,183.7z
				 M151.2,168.7c-3.6,0-6.5,2.9-6.5,6.5s2.9,6.5,6.5,6.5s6.5-2.9,6.5-6.5S154.7,168.7,151.2,168.7z"/>
		</g>
	</g>
</g>
<g>
	<g>
		<g>
			<path class="st0" d="M151,164.7c-3.1,0-5.8-2-6-4.5l-3.9-42.1c-0.4-3.9,0.5-7.1,2.5-9.3c1.8-2,4.4-3,7.4-3c3.1,0,5.7,1,7.4,3
				c2,2.2,2.8,5.4,2.5,9.3l-3.9,42.1C156.8,162.7,154.1,164.7,151,164.7z M151,107.7c-2.5,0-4.6,0.8-6,2.3c-1.6,1.8-2.3,4.5-2,7.8
				l3.9,42.1c0.1,1.5,2,2.7,4,2.7c2.1,0,3.9-1.2,4-2.7l3.9-42.1c0.3-3.3-0.3-6-2-7.8C155.5,108.5,153.5,107.7,151,107.7z"/>
		</g>
	</g>
</g>
<g>
	<g>
		<g>
			<path class="st1" d="M150.7,256.7c-18.3,0-36.4-4.9-52.1-14.3l1-1.7c15.4,9.2,33,14,51,14c5.3,0,10.6-0.4,15.8-1.2l0.3,2
				C161.5,256.3,156.1,256.7,150.7,256.7z M175.8,253.6l-0.5-1.9c13.5-3.4,26-9.6,37-18.2l1.2,1.6
				C202.3,243.8,189.6,250.1,175.8,253.6z M91.9,238c-27.1-19.1-43.2-50.3-43.2-83.3c0-21.8,6.8-42.5,19.6-60.1l1.6,1.2
				c-12.6,17.2-19.2,37.6-19.2,58.9c0,32.4,15.8,62.9,42.4,81.7L91.9,238z M237.5,208.3l-1.7-1.1c1.8-2.9,3.4-5.9,4.9-8.9l1.8,0.9
				C241,202.3,239.3,205.3,237.5,208.3z M247.5,187l-1.9-0.6c1.5-4.6,2.8-9.3,3.6-14.1l2,0.4C250.3,177.5,249,182.3,247.5,187z
				 M252.4,162.5l-2-0.2c0.2-2.5,0.3-5.1,0.3-7.6c0-55.1-44.9-100-100-100c-6.5,0-13,0.6-19.3,1.9l-0.4-2c6.4-1.3,13.1-1.9,19.7-1.9
				c56.2,0,102,45.8,102,102C252.7,157.3,252.6,159.9,252.4,162.5z M90.6,74.8l-1.2-1.6c9.4-7.1,19.9-12.5,31.1-15.9l0.6,1.9
				C110.1,62.6,99.9,67.9,90.6,74.8z"/>
		</g>
	</g>
</g>
<g>
	
		<rect x="244.7" y="240.3" transform="matrix(0.7072 -0.707 0.707 0.7072 -101.8383 245.6561)" class="st2" width="2" height="11.1"/>
</g>
<g>
	
		<rect x="228.9" y="221.7" transform="matrix(0.7073 -0.707 0.707 0.7073 -95.2889 229.8502)" class="st2" width="2" height="16.6"/>
</g>
<g>
	<rect x="74" y="66.7" transform="matrix(0.7073 -0.707 0.707 0.7073 -31.0944 75.0047)" class="st2" width="2" height="16.6"/>
</g>
<g>
	<rect x="36.2" y="0.1" transform="matrix(0.7072 -0.707 0.707 0.7072 -15.4343 37.2306)" class="st2" width="2" height="74.2"/>
</g>
<g>
	<rect x="2.3" y="-0.4" transform="matrix(0.7072 -0.707 0.707 0.7072 -1.3878 3.3487)" class="st2" width="2" height="7.5"/>
</g>
</svg>
