<svg version="1.1" id="Layer_1" xmlns="http://www.w3.org/2000/svg" xmlns:xlink="http://www.w3.org/1999/xlink" x="0px" y="0px"
	 width="100%" viewBox="0 0 528 496" enable-background="new 0 0 528 496" xml:space="preserve">
<path fill="#FFFFFF" opacity="0.8" stroke="none" 
	d="
M262.242371,31.664757 
	C303.485413,31.388609 342.000427,40.375927 377.633331,60.390266 
	C393.438873,69.267944 407.901794,80.071655 420.992218,92.774567 
	C436.107971,107.442871 449.469543,123.382446 460.015778,141.659363 
	C472.739960,163.710709 481.677521,187.145462 486.352051,212.196213 
	C489.374695,228.394333 490.963684,244.747879 490.256226,261.185303 
	C489.071503,288.710968 483.533600,315.314270 472.614319,340.783264 
	C463.971741,360.941864 452.627472,379.362946 438.670288,396.170410 
	C420.226715,418.380524 398.223206,436.259308 372.663727,449.815033 
	C358.227539,457.471405 343.217621,463.572662 327.477875,467.832703 
	C310.467804,472.436554 293.217926,475.128143 275.490692,475.506256 
	C248.167114,476.089050 221.520004,472.905273 195.706741,463.791168 
	C169.970245,454.704132 146.467163,441.685944 125.699432,423.817444 
	C104.856895,405.884613 87.317696,385.348358 74.092796,361.110474 
	C60.759544,336.673920 52.234619,310.823975 48.473957,283.216553 
	C46.440887,268.291595 45.883793,253.326584 46.872768,238.462936 
	C49.280781,202.272049 59.905922,168.532181 79.036285,137.494873 
	C89.574638,120.397362 101.943077,104.781250 116.661171,91.303040 
	C148.206100,62.415527 184.899551,43.273315 227.247925,35.634979 
	C236.710724,33.928181 246.204391,32.429237 255.883835,32.590576 
	C257.839020,32.623169 259.805115,31.999752 262.242371,31.664757 
M154.138367,104.733795 
	C147.866104,108.861664 142.269043,113.873398 137.033813,119.152504 
	C124.258766,132.034622 113.237938,146.255524 104.228043,162.135559 
	C90.384621,186.534744 82.720695,212.771866 80.540192,240.496735 
	C79.278931,256.533447 80.102501,272.689362 83.358086,288.598175 
	C90.255585,322.303711 104.457008,352.486847 127.459862,378.151276 
	C146.077560,398.923126 168.045303,415.313965 193.818817,426.460602 
	C213.333542,434.900330 233.668579,440.159302 254.786667,441.493652 
	C280.883911,443.142609 306.423248,439.809509 331.146484,430.659576 
	C360.671234,419.732605 386.040344,402.913513 407.286041,379.615082 
	C421.544586,363.978851 432.902924,346.612885 441.367554,327.270905 
	C451.141144,304.937866 455.969330,281.539093 456.651703,257.230988 
	C456.974121,245.746109 455.502502,234.426376 453.736481,223.105103 
	C450.767853,204.074448 444.684448,186.039719 435.898254,169.022369 
	C428.741638,155.161224 419.967499,142.333710 409.671234,130.433731 
	C394.345367,112.720757 376.507782,98.235626 355.865814,87.534294 
	C320.836884,69.374397 283.711243,61.932903 244.205276,67.241150 
	C211.008377,71.701668 181.327194,84.198456 154.138367,104.733795 
z"/>
<path fill="#FFFFFF" opacity="0.8" stroke="none" 
	d="
M218.650146,186.000290 
	C218.657578,180.167435 218.466446,174.825150 218.715118,169.503418 
	C219.201431,159.095978 226.880005,155.267212 235.518066,161.110703 
	C244.042099,166.877075 252.452255,172.812256 260.894196,178.699402 
	C282.273132,193.608383 303.638245,208.537186 325.016144,223.447632 
	C336.310059,231.324814 347.658173,239.125031 358.905640,247.067841 
	C364.856079,251.269913 364.746033,258.623871 358.798615,262.977600 
	C334.987640,280.408112 311.160156,297.816040 287.347534,315.244263 
	C270.224243,327.776672 253.133606,340.353912 235.973526,352.835693 
	C233.990646,354.277954 231.994614,355.874634 229.404755,356.268829 
	C223.461121,357.173492 219.095963,352.905945 218.717682,345.488739 
	C218.497238,341.166504 218.653076,336.824677 218.652863,332.491669 
	C218.650528,283.827820 218.650787,235.163986 218.650146,186.000290 
z"/>
</svg>