<?xml version="1.0" standalone="no"?>
<!DOCTYPE svg PUBLIC "-//W3C//DTD SVG 20010904//EN"
 "http://www.w3.org/TR/2001/REC-SVG-20010904/DTD/svg10.dtd">
<svg version="1.0" xmlns="http://www.w3.org/2000/svg"
 width="198.000000pt" height="198.000000pt" viewBox="0 0 198.000000 198.000000"
 preserveAspectRatio="xMidYMid meet">
<metadata>
Created by potrace 1.14, written by Peter Selinger 2001-2017
</metadata>
<g transform="translate(0.000000,198.000000) scale(0.100000,-0.100000)"
fill="#000000" stroke="none">
<path d="M850 1962 c-14 -2 -66 -14 -116 -27 -264 -67 -495 -252 -624 -499
-29 -56 -69 -154 -75 -186 -2 -8 -15 -63 -22 -90 -12 -50 -11 -287 2 -356 50
-262 203 -495 421 -640 105 -70 190 -108 311 -139 85 -22 117 -26 244 -24 192
1 286 23 444 100 268 132 470 403 526 702 24 128 15 319 -20 435 -5 18 -10 35
-9 38 0 9 -23 68 -55 134 -163 344 -526 568 -907 558 -52 -1 -106 -4 -120 -6z"/>
</g>
</svg>
