<svg version="1.1" id="Layer_1" xmlns="http://www.w3.org/2000/svg" xmlns:xlink="http://www.w3.org/1999/xlink" x="0px" y="0px"
	 width="100%" viewBox="0 0 121 105" enable-background="new 0 0 121 105" xml:space="preserve">
<path fill="#3F94FA" opacity="0" stroke="none" 
	d="
M84.000000,106.000000 
	C56.000000,106.000000 28.500000,106.000000 1.000000,106.000000 
	C1.000000,71.000000 1.000000,36.000000 1.000000,1.000000 
	C41.333332,1.000000 81.666664,1.000000 122.000000,1.000000 
	C122.000000,36.000000 122.000000,71.000000 122.000000,106.000000 
	C109.500000,106.000000 97.000000,106.000000 84.000000,106.000000 
M25.860022,69.560089 
	C26.181118,70.327644 26.494255,71.098633 26.824482,71.862244 
	C33.854160,88.117409 51.524746,97.319687 69.013947,93.835136 
	C86.303223,90.390411 99.063133,75.063278 99.491493,57.225632 
	C99.908615,39.855877 87.616173,23.969145 70.713150,19.824327 
	C41.521114,12.666107 15.991585,40.220707 25.860022,69.560089 
z"/>
<path fill="#FFFFFF" opacity="1.000000" stroke="none" 
	d="
M25.705185,69.195724 
	C15.991585,40.220707 41.521114,12.666107 70.713150,19.824327 
	C87.616173,23.969145 99.908615,39.855877 99.491493,57.225632 
	C99.063133,75.063278 86.303223,90.390411 69.013947,93.835136 
	C51.524746,97.319687 33.854160,88.117409 26.824482,71.862244 
	C26.494255,71.098633 26.181118,70.327644 25.705185,69.195724 
M41.082005,83.561508 
	C41.281910,83.212410 41.481815,82.863304 41.442165,81.909531 
	C43.544659,82.275154 45.647152,82.640785 48.022663,83.053894 
	C49.339787,79.964355 50.679852,76.821007 52.228077,73.189392 
	C44.530045,71.186661 37.280754,69.300682 29.298149,67.223923 
	C31.897972,74.071083 35.215961,79.436180 41.082005,83.561508 
M43.806400,66.603722 
	C44.043022,66.567528 44.279644,66.531342 44.516266,66.495148 
	C44.347752,66.327248 44.179234,66.159340 43.949974,65.216499 
	C40.137077,56.814083 41.483616,48.976566 46.745197,41.699589 
	C49.276291,38.198982 52.201817,34.985775 54.796093,31.527903 
	C56.694851,28.997084 58.344715,26.279530 60.384132,23.228371 
	C46.947674,22.835321 34.011562,31.956648 29.773756,45.186108 
	C25.018877,60.029747 26.376482,63.402481 43.093727,66.398933 
	C43.244968,66.426048 43.417397,66.334953 43.806400,66.603722 
M85.227501,80.736404 
	C93.060539,72.790108 96.353722,63.362743 94.889732,51.627396 
	C85.567596,55.667175 76.368965,58.751293 68.108582,63.475830 
	C59.063587,68.649117 53.272270,76.884872 51.595234,88.022766 
	C62.423908,88.960274 69.837898,82.686546 77.594322,77.310631 
	C77.860588,77.719223 78.126846,78.127815 78.393112,78.536407 
	C74.239029,82.247261 70.084946,85.958107 65.363373,90.175903 
	C73.376320,89.232193 79.450966,86.105484 85.227501,80.736404 
M72.744049,56.150467 
	C74.110023,55.607815 75.475990,55.065159 77.091255,54.423473 
	C75.526901,43.784222 67.099220,37.851875 61.511082,29.403421 
	C56.957565,35.330898 52.404018,40.451664 48.778625,46.161728 
	C42.949448,55.342777 45.773254,65.430428 53.719250,69.140228 
	C60.158310,64.692268 66.109863,60.581059 72.744049,56.150467 
M89.293419,37.286583 
	C82.893318,28.479942 74.437767,23.525267 62.530952,22.883001 
	C69.570648,33.115143 76.083458,42.581459 83.004913,52.641739 
	C85.893753,51.177189 89.964211,49.113594 94.395027,46.867313 
	C92.615501,43.437008 91.170441,40.651443 89.293419,37.286583 
z"/>
<path fill="#FFFFFF" opacity="0" stroke="none" 
	d="
M84.974274,80.987907 
	C79.450966,86.105484 73.376320,89.232193 65.363373,90.175903 
	C70.084946,85.958107 74.239029,82.247261 78.393112,78.536407 
	C78.126846,78.127815 77.860588,77.719223 77.594322,77.310631 
	C69.837898,82.686546 62.423908,88.960274 51.595234,88.022766 
	C53.272270,76.884872 59.063587,68.649117 68.108582,63.475830 
	C76.368965,58.751293 85.567596,55.667175 94.889732,51.627396 
	C96.353722,63.362743 93.060539,72.790108 84.974274,80.987907 
z"/>
<path fill="#FFFFFF" opacity="0" stroke="none" 
	d="
M72.402740,56.310158 
	C66.109863,60.581059 60.158310,64.692268 53.719250,69.140228 
	C45.773254,65.430428 42.949448,55.342777 48.778625,46.161728 
	C52.404018,40.451664 56.957565,35.330898 61.511082,29.403421 
	C67.099220,37.851875 75.526901,43.784222 77.091255,54.423473 
	C75.475990,55.065159 74.110023,55.607815 72.402740,56.310158 
z"/>
<path fill="#FFFFFF" opacity="0" stroke="none" 
	d="
M43.579933,66.299049 
	C43.417397,66.334953 43.244968,66.426048 43.093727,66.398933 
	C26.376482,63.402481 25.018877,60.029747 29.773756,45.186108 
	C34.011562,31.956648 46.947674,22.835321 60.384132,23.228371 
	C58.344715,26.279530 56.694851,28.997084 54.796093,31.527903 
	C52.201817,34.985775 49.276291,38.198982 46.745197,41.699589 
	C41.483616,48.976566 40.137077,56.814083 43.873428,65.681969 
	C43.796886,66.147438 43.579933,66.299049 43.579933,66.299049 
z"/>
<path fill="#FFFFFF" opacity="0" stroke="none" 
	d="
M89.509399,37.576233 
	C91.170441,40.651443 92.615501,43.437008 94.395027,46.867313 
	C89.964211,49.113594 85.893753,51.177189 83.004913,52.641739 
	C76.083458,42.581459 69.570648,33.115143 62.530952,22.883001 
	C74.437767,23.525267 82.893318,28.479942 89.509399,37.576233 
z"/>
<path fill="#FFFFFF" opacity="0" stroke="none" 
	d="
M40.859852,83.153412 
	C35.215961,79.436180 31.897972,74.071083 29.298149,67.223923 
	C37.280754,69.300682 44.530045,71.186661 52.228077,73.189392 
	C50.679852,76.821007 49.339787,79.964355 48.022663,83.053894 
	C45.647152,82.640785 43.544659,82.275154 41.351265,82.364960 
	C41.126854,82.931404 40.993351,83.042412 40.859852,83.153412 
z"/>
<path fill="#FFFFFF" opacity="0" stroke="none" 
	d="
M43.903801,66.069443 
	C44.179234,66.159340 44.347752,66.327248 44.516266,66.495148 
	C44.279644,66.531342 44.043022,66.567528 43.693169,66.451385 
	C43.579933,66.299049 43.796886,66.147438 43.903801,66.069443 
z"/>
<path fill="#FFFFFF" opacity="0" stroke="none" 
	d="
M41.471043,82.667297 
	C41.481815,82.863304 41.281910,83.212410 40.970928,83.357460 
	C40.993351,83.042412 41.126854,82.931404 41.471043,82.667297 
z"/>
</svg>